<svg width="150" height="90" viewBox="0 0 150 90" fill="none" xmlns="http://www.w3.org/2000/svg">
<path d="M0.34 66L9.16 24.6H18.46L9.64 66H0.34ZM4.42 66L6.28 57.3H29.38L27.52 66H4.42ZM32.9767 66L41.7967 24.6H51.0967L42.2767 66H32.9767ZM37.0567 66L38.9167 57.3H66.0367L64.1767 66H37.0567ZM40.6567 49.08L42.3967 40.86H66.6967L64.9567 49.08H40.6567ZM44.0167 33.3L45.8767 24.6H72.7567L70.8967 33.3H44.0167ZM66.288 66L88.248 24.6H102.468L106.788 66H97.248L96.408 56.52H81.588L76.848 66H66.288ZM85.728 48.3H95.628L94.128 31.68L85.728 48.3ZM117.276 53.22L119.136 44.52H130.776C132.896 44.52 134.616 44.24 135.936 43.68C137.256 43.12 138.216 42.34 138.816 41.34C139.456 40.34 139.776 39.18 139.776 37.86C139.776 36.46 139.276 35.36 138.276 34.56C137.316 33.72 135.716 33.3 133.476 33.3H121.536L123.396 24.6H135.156C138.196 24.6 140.756 25.1 142.836 26.1C144.956 27.06 146.576 28.44 147.696 30.24C148.816 32.04 149.376 34.14 149.376 36.54C149.376 39.62 148.596 42.42 147.036 44.94C145.476 47.46 143.216 49.48 140.256 51C137.336 52.48 133.756 53.22 129.516 53.22H117.276ZM110.496 66L119.316 24.6H128.616L119.796 66H110.496Z" fill="white"/>
</svg>
