<svg width="150" height="42" viewBox="0 0 150 42" fill="none" xmlns="http://www.w3.org/2000/svg">
<path d="M0.339844 42.0001L9.15984 0.600098H18.4598L9.63984 42.0001H0.339844ZM4.41984 42.0001L6.27984 33.3001H29.3798L27.5198 42.0001H4.41984ZM32.9765 42.0001L41.7965 0.600098H51.0965L42.2765 42.0001H32.9765ZM37.0565 42.0001L38.9165 33.3001H66.0365L64.1765 42.0001H37.0565ZM40.6565 25.0801L42.3965 16.8601H66.6965L64.9566 25.0801H40.6565ZM44.0165 9.3001L45.8765 0.600098H72.7565L70.8965 9.3001H44.0165ZM66.2878 42.0001L88.2478 0.600098H102.468L106.788 42.0001H97.2478L96.4078 32.5201H81.5878L76.8478 42.0001H66.2878ZM85.7278 24.3001H95.6278L94.1278 7.6801L85.7278 24.3001ZM117.276 29.2201L119.136 20.5201H130.776C132.896 20.5201 134.616 20.2401 135.936 19.6801C137.256 19.1201 138.216 18.3401 138.816 17.3401C139.456 16.3401 139.776 15.1801 139.776 13.8601C139.776 12.4601 139.276 11.3601 138.276 10.5601C137.316 9.7201 135.716 9.3001 133.476 9.3001H121.536L123.396 0.600098H135.156C138.196 0.600098 140.756 1.1001 142.836 2.1001C144.956 3.0601 146.576 4.4401 147.696 6.2401C148.816 8.0401 149.376 10.1401 149.376 12.5401C149.376 15.6201 148.596 18.4201 147.036 20.9401C145.476 23.4601 143.216 25.4801 140.256 27.0001C137.336 28.4801 133.756 29.2201 129.516 29.2201H117.276ZM110.496 42.0001L119.316 0.600098H128.616L119.796 42.0001H110.496Z" fill="#1D1B20"/>
</svg>
